<?xml version="1.0" standalone="no"?>
<!DOCTYPE svg PUBLIC "-//W3C//DTD SVG 1.1//EN" "http://www.w3.org/Graphics/SVG/1.1/DTD/svg11.dtd" >
<svg xmlns="http://www.w3.org/2000/svg" xmlns:xlink="http://www.w3.org/1999/xlink" version="1.1">
<metadata></metadata>
<defs>
<font id="pretendoregular" horiz-adv-x="636" >
<font-face units-per-em="2048" ascent="1638" descent="-410" />
<missing-glyph horiz-adv-x="390" />
<glyph horiz-adv-x="0" />
<glyph unicode="&#xd;" horiz-adv-x="390" />
<glyph unicode=" "  horiz-adv-x="390" />
<glyph unicode="&#x09;" horiz-adv-x="390" />
<glyph unicode="&#xa0;" horiz-adv-x="390" />
<glyph unicode="!" horiz-adv-x="249" />
<glyph unicode="&#x22;" horiz-adv-x="237" />
<glyph unicode="#" />
<glyph unicode="$" />
<glyph unicode="%" />
<glyph unicode="&#x26;" horiz-adv-x="486" />
<glyph unicode="'" horiz-adv-x="169" />
<glyph unicode="(" horiz-adv-x="336" />
<glyph unicode=")" horiz-adv-x="384" />
<glyph unicode="*" horiz-adv-x="492" />
<glyph unicode="+" />
<glyph unicode="," horiz-adv-x="237" />
<glyph unicode="-" horiz-adv-x="471" />
<glyph unicode="." horiz-adv-x="201" />
<glyph unicode="/" horiz-adv-x="357" />
<glyph unicode="0" />
<glyph unicode="1" />
<glyph unicode="2" />
<glyph unicode="3" />
<glyph unicode="4" />
<glyph unicode="5" />
<glyph unicode="6" />
<glyph unicode="7" />
<glyph unicode="8" />
<glyph unicode="9" />
<glyph unicode=":" horiz-adv-x="231" />
<glyph unicode=";" horiz-adv-x="237" />
<glyph unicode="&#x3c;" />
<glyph unicode="=" />
<glyph unicode="&#x3e;" />
<glyph unicode="?" horiz-adv-x="567" />
<glyph unicode="@" horiz-adv-x="579" />
<glyph unicode="A" horiz-adv-x="1637" d="M42 -4q-1 65 -1 128q0 1473 714 1474q29 0 59 -3q34 3 67 3q719 0 719 -1401q0 -98 -4 -203l-536 1l-2 555h-485l-1 -554h-530zM576 744h248h99h145q1 33 1 65q0 646 -251 646h-4q-7 1 -14 1q-225 0 -224 -637q-1 -36 0 -75z" />
<glyph unicode="B" horiz-adv-x="1500" d="M56 -3v1624h469q52 1 101 1q786 0 786 -342v-10q8 -46 9 -87q0 -286 -405 -301q406 -33 429 -395q1 -493 -743 -493q-59 0 -122 3h-272h-110h-109h-33zM528 216q9 -90 198 -90q174 6 174 270q0 20 -1 41v128v6q0 173 -179 187q-188 -5 -192 -75v-467zM537 1044 q8 -73 169 -73h9q156 4 156 223q0 15 -1 30v105v5q0 139 -161 153q-168 -4 -172 -61v-382z" />
<glyph unicode="C" horiz-adv-x="1730" d="M67 800q45 766 778 819q661 -25 799 -634l-562 2q-5 123 -26 202.5t-54 124.5q-32 46 -73 60q-28 10 -56 9q-14 0 -28 -2q-66 0 -110 -43t-69.5 -119t-33.5 -180q-5 -65 -6 -138q0 -43 2 -88v-53q0 -117 7 -213q9 -118 34 -199t68 -123q38 -38 94 -38q7 0 14 1 q44 3 78.5 21.5t61.5 48.5t46 68t32 80.5t19.5 86.5t8.5 85l556 6q-26 -100 -69 -191t-103 -164.5t-137 -125t-173 -73.5q-138 -32 -270 -32q-235 0 -452 100q-339 156 -376 702z" />
<glyph unicode="D" horiz-adv-x="1551" d="M41 -4v1624h504q62 4 121 4q835 0 835 -807q0 -38 -2 -78q-3 -743 -879 -743h-16h-292h-118h-117h-36zM533 256q19 -85 145 -85q16 0 33 1h9q242 0 241 411q0 31 -1 65v395v9q0 394 -258 402q-12 1 -24 1q-129 0 -145 -83v-1116z" />
<glyph unicode="E" horiz-adv-x="1417" d="M41 0v1599h453h863v-317l-863 1v-361h685v-245h-685v-356l855 1v-322h-855h-453z" />
<glyph unicode="F" horiz-adv-x="1403" d="M42 0v1599h453h863v-317l-863 1v-361h685v-245h-685v-677h-453z" />
<glyph unicode="G" horiz-adv-x="1684" d="M47 802q43 772 761 825q731 -36 796 -644l-523 2q-45 290 -152 383q-46 41 -92 41q-63 0 -126 -73q-110 -127 -116 -521q-1 -44 -1 -85q0 -442 109 -505q53 -30 106 -30q67 0 134 47q121 85 130 355l-273 1l-3 220h804q-58 -679 -457 -780q-156 -40 -302 -40 q-226 0 -427 96q-330 157 -368 708z" />
<glyph unicode="H" horiz-adv-x="1770" d="M63 0v1599h170h94h95h94l3 -667l630 -1v668h188h95h94h94h-94h94v-188v-94v-235v-94v-141v-95v-187v-142v-188v-94v-141h-235h-94h-94h-39l-2 671l-640 3v-674h-235h-95h-94h-29z" />
<glyph unicode="I" horiz-adv-x="601" d="M84 0v1599h170h94h95h94h-94h94v-424v-328v-95v-235v-94v-141v-141v-141h-235h-95h-94h-29z" />
<glyph unicode="J" horiz-adv-x="1372" d="M77 767h471l-2 -366q-2 -25 -2 -47q0 -194 132 -198h3q129 0 129 269q0 33 -2 70v1122h493v-1180q-78 -437 -589 -437h-30q-539 12 -600 379z" />
<glyph unicode="K" horiz-adv-x="1560" d="M82 0v1599h205h114h114h114h-114h114v-591l488 587l333 2l-453 -583l562 -1014h-616l-314 594v-594h-284h-115h-113h-35z" />
<glyph unicode="L" horiz-adv-x="1300" d="M82 0v1599h170h94h95h94h-94h94v-424v-328v-95v-235v-219l705 -1v-301l-705 4h-235h-95h-94h-29z" />
<glyph unicode="M" horiz-adv-x="1730" d="M57 0v1599h170h94h95h94h-94h74l390 -961l380 961h143h95h94h94h-94h94v-188v-94v-235v-94v-141v-95v-187v-142v-188v-94v-141h-235h-94h-94l1 1016l-367 -937l-387 902v-134v-95v-235v-94v-141v-141v-141h-235h-95h-94h-29z" />
<glyph unicode="N" horiz-adv-x="1693" d="M28 0v1599h170h94h95h94h-94h94l705 -1082v1082h188h95h94h94h-94h94v-188v-94v-235v-94v-141v-95v-187v-142v-188v-94v-141h-235h-94h-94h-19l-734 1175v-328v-95v-235v-94v-141v-141v-141h-235h-95h-94h-29z" />
<glyph unicode="O" horiz-adv-x="1695" d="M33 858q30 424 244 592q200 159 478 159q18 0 37 -1h88q328 -20 512 -206.5t209 -539.5v-35q0 -411 -206 -599q-213 -196 -518 -231h-93q-392 38 -566 243q-173 206 -185 618zM575 569q15 -351 248 -369q224 24 224 363v15v459q-5 373 -228 374q-240 -9 -244 -369v-473z " />
<glyph unicode="P" horiz-adv-x="1298" d="M41 -3v1624h412h22q769 0 770 -462q0 -19 -2 -39q1 -20 2 -39q0 -416 -639 -417q-50 0 -105 3v-670h-239h-96h-96h-29zM501 926q7 -90 154 -90q137 6 137 276q0 17 -1 35v128q1 178 -141 193q-144 -4 -149 -75v-467z" />
<glyph unicode="Q" horiz-adv-x="1773" d="M44 845q33 426 258 594q115 86 250 125q119 35 258 35q18 0 36 -1h94q346 -20 541 -207t221 -542v-15q0 -393 -158 -564q-160 -175 -287 -220q-20 -26 -20 -46q0 -59 183 -59q53 0 122 5l3 -423q-70 -3 -134 -3q-585 0 -631 231l2 243q-179 9 -314.5 65t-228 161 t-141 259.5t-54.5 361.5zM617 554q16 -352 263 -370q236 25 236 363v17v461q-4 373 -241 375q-254 -9 -258 -370v-476z" />
<glyph unicode="R" horiz-adv-x="1450" d="M51 -3v1624h452h24q842 0 843 -460q0 -20 -2 -41q-18 -316 -291 -376q278 -51 299 -281l-3 -465h-487l1 460v11q0 199 -291 199q-20 0 -41 -1v-670h-262h-105h-105h-32zM546 926q7 -90 154 -90q137 6 137 276q0 17 -1 35v128q1 178 -141 193q-144 -4 -149 -75v-467z" />
<glyph unicode="S" horiz-adv-x="1585" d="M35 453l551 -3q-2 -20 -2 -39q0 -47 11 -87q6 -24 17.5 -47.5t30 -43t45 -33t63.5 -16.5q18 -2 35 -2q33 0 60 9q17 6 33.5 17t28.5 29t18.5 44.5t3.5 62.5q-1 44 -46 89q-19 19 -49.5 40.5t-76.5 43.5t-108.5 44.5t-145.5 43.5q-143 43 -251 120q-46 33 -89 75.5t-74 97 t-46 121.5q-9 42 -9 89q0 28 3 58q11 113 85 205q31 39 79.5 77t118.5 69.5t164.5 53t218.5 26.5q166 -3 303 -47q58 -19 116 -49t107 -74.5t84 -105t48 -141.5l-505 3q-5 62 -26 111q-9 21 -22 41t-32 36t-43.5 26.5t-55.5 11.5h-10q-43 0 -77 -16q-16 -8 -31.5 -20.5 t-27.5 -31.5t-19 -45.5t-6 -62.5q4 -40 52 -80q21 -17 53 -36.5t79.5 -40t112 -40.5t150.5 -38q119 -43 211 -118q39 -32 76 -74t65 -96t44 -118q13 -54 12 -117v-25q1 -125 -67 -224q-29 -42 -75.5 -82t-116.5 -71.5t-167 -50.5t-227 -19q-184 3 -330 51q-62 21 -122.5 53 t-108.5 80t-79 113.5t-34 152.5z" />
<glyph unicode="T" horiz-adv-x="1799" d="M47 1409v190h635h453h610v-190l-555 1v-1410h-583v1410z" />
<glyph unicode="U" horiz-adv-x="1530" d="M48 1641h544l-2 -1236q-2 -26 -2 -48q0 -196 153 -200h4q148 0 148 271q0 34 -2 72v1136h570v-1195q-89 -442 -679 -442h-37q-624 12 -694 384z" />
<glyph unicode="V" horiz-adv-x="1734" d="M67 1628h540l268 -1032l291 1033l535 1l-601 -1635h-259l-224 1z" />
<glyph unicode="W" horiz-adv-x="2370" d="M52 1598h493l270 -1070l387 888l367 -923l219 1110h528l-325 -1604h-426l-360 947l-380 -947h-393z" />
<glyph unicode="X" horiz-adv-x="1761" d="M3 0l551 833l-501 765h544l283 -492l275 492h538l-497 -774l544 -824h-555l-315 513l-316 -513h-551z" />
<glyph unicode="Y" horiz-adv-x="1589" d="M87 1032v561l495 -1v-441q0 -48 13 -89t42 -69.5t75 -42.5q39 -13 92 -13q11 0 22 1q9 -1 17 -1q32 0 66 9q43 11 78.5 39t59 73t23.5 108v432l466 1l3 -580q-19 -236 -452 -280v-740h-581v734q-401 29 -419 299z" />
<glyph unicode="Z" horiz-adv-x="1433" d="M41 -2v170v94v95v94v-94v94l851 705h-851v188v95v94v94v-94v94h164h83h205h82h123h84h163h124h165h-13h123v-235v-94v-94v-19l-874 -734h228h84h205h82h123h29h123v-235v-95v-94v-29h-1303z" />
<glyph unicode="[" horiz-adv-x="282" />
<glyph unicode="\" horiz-adv-x="318" />
<glyph unicode="]" horiz-adv-x="312" />
<glyph unicode="^" horiz-adv-x="330" />
<glyph unicode="_" horiz-adv-x="1134" />
<glyph unicode="`" horiz-adv-x="1164" />
<glyph unicode="a" horiz-adv-x="1419" d="M35 566q3 190 107 345t398 229q56 4 104 4q193 0 265 -61v37l469 -1v-83v-140v-94v-187v-141v-187v-94v-198h-470l-1 38q-45 -35 -237 -35q-45 0 -98 2q-286 6 -420 182q-119 157 -119 338q0 23 2 46zM539 421q15 -278 199 -291q180 19 177 161v527q1 12 1 23 q0 157 -182 173q-188 -8 -195 -291v-302z" />
<glyph unicode="b" horiz-adv-x="1441" d="M45 -5v198v94v187v141v187v94v140v94v234v93v188h94h-94h94h94h93h188v-562q72 61 265 61q48 0 104 -4q294 -74 397 -229q105 -155 108 -345q2 -22 2 -44q0 -182 -119 -340q-134 -176 -420 -182q-53 -2 -98 -2q-193 0 -237 35l-1 -38h-470zM508 291q-3 -142 177 -161 q184 13 199 291v302q-8 283 -195 291q-182 -16 -182 -173q0 -11 1 -23v-527z" />
<glyph unicode="c" horiz-adv-x="1365" d="M66 583q74 528 625 553q148 -5 259.5 -30t187.5 -81t117 -147.5t48 -228.5h-141h-87h-197v11q0 56 -10 109q-10 59 -33 105.5t-59 75t-85 28.5q-47 0 -80.5 -36t-55 -94t-30.5 -131q-7 -60 -7 -119v-27v-40q0 -69 5 -129q7 -78 28 -136.5t58 -92t94 -34.5h4q50 0 86 22 q37 23 58 61.5t27 87.5q3 24 4 47q0 26 -4 52h164h87h87h87h-87h87q-22 -90 -57 -156t-82 -112.5t-106.5 -75.5t-131.5 -44q-110 -24 -215 -24q-167 0 -320 60q-249 98 -324 448z" />
<glyph unicode="d" horiz-adv-x="1453" d="M52 566q3 190 107 345t398 229q56 4 104 4q193 0 265 -61v562h188h93h94h94h-94h94v-188v-93v-234v-94v-140v-94v-187v-141v-187v-94v-198h-470l-1 38q-45 -35 -237 -35q-45 0 -98 2q-286 6 -420 182q-119 157 -119 338q0 23 2 46zM556 421q15 -278 199 -291 q180 19 177 161v527q1 12 1 23q0 157 -182 173q-188 -8 -195 -291v-302z" />
<glyph unicode="e" horiz-adv-x="1306" d="M31 583q74 528 625 553q591 -18 619 -565h-141h-87h-217h-87h-130h-130q-1 -31 -1 -59q0 -308 89 -352q43 -21 86 -21q53 0 106 33q80 49 80 202q0 31 -3 67h164h87h87h87h-87h87q-89 -359 -374 -420q-110 -24 -215 -24q-167 0 -320 60q-249 98 -324 448zM483 745h173h87 h87q-2 248 -168 269q-174 -9 -179 -269z" />
<glyph unicode="f" horiz-adv-x="1539" d="M44 622v153l362 -2l1 444q-1 18 -1 36q0 359 581 359h27q39 2 75 2q397 0 420 -265v-281h-363v153q-5 201 -127 201h-5q-141 -2 -141 -177q0 -12 1 -24v-448l325 -1v-155h-325v-617h-468l2 623z" />
<glyph unicode="g" horiz-adv-x="1549" d="M4 -95h444q-1 -19 -1 -37q0 -97 18 -174q9 -39 24 -77t39 -67.5t57.5 -47.5t79.5 -18q52 0 89 18.5t62.5 49t40.5 69.5t23 80q12 61 12 133q0 40 -4 84l-3 121q-45 -35 -237 -35q-45 0 -98 2q-286 6 -420 182q-119 157 -119 338q0 23 2 46q2 96 30 180.5t77 164.5 q30 49 72.5 87.5t94 67t110 47t121.5 27.5q56 4 104 4q193 0 265 -61v37l513 7v-88v-140v-94v-187v-141v-187v-293v-25q0 -122 -26 -214q-29 -102 -79.5 -176t-115.5 -123t-133 -79q-159 -70 -361 -70h-6q-147 1 -254 27.5t-182 68.5t-121.5 94.5t-73.5 107.5 q-48 99 -48 219q0 35 4 72zM517 427q15 -278 199 -291q180 19 177 161v527q1 12 1 23q0 157 -182 173q-188 -8 -195 -291v-302z" />
<glyph unicode="h" horiz-adv-x="1473" d="M30 -3v1103l2 495h486l-4 -495l4 -134q160 156 378 180q47 4 90 4q432 0 443 -386v-48v24v24v-96v48v-48v-239v-96v-96v-96v-144h-191h-96h-96h-96h96h-96v767q1 151 -210 168q-12 1 -23 1q-132 0 -200 -121v-192v-95v-240v-96v-192h-239h-96h-96h-56z" />
<glyph unicode="i" horiz-adv-x="731" d="M89 1067h190h95h95h95h-95h145l-2 -1071h-237h-95h-95h-95h95h-95zM89 1257h95h-95v332v-95v95h237h95h95h95h-95h95v-237v-95v95v-95h-237h-95h-95h-95z" />
<glyph unicode="j" horiz-adv-x="1555" d="M11 -107l482 3q0 -83 10.5 -143.5t26.5 -103.5t37 -71t42 -44q42 -33 95 -33q9 0 19 1q45 2 77.5 21t55 49t36.5 68t22 77q14 69 14 151q0 28 -2 57l5 1151h190h95h95h95h-95h145l5 -1151q1 -19 1 -37q0 -98 -23 -174q-27 -90 -74.5 -155t-110 -107.5t-128.5 -68.5 q-146 -58 -331 -58h-24h-24q-138 0 -243 21q-114 23 -196 62.5t-136 90.5t-87 105q-74 121 -74 277v12zM931 1266h95h-95v332v-95v95h237h95h95h95h-95h95v-237v-95v95v-95h-237h-95h-95h-95z" />
<glyph unicode="k" horiz-adv-x="1496" d="M37 -3v1103l2 495h486l-1 -675l417 524h252l-322 -428l612 -1022h-529l-389 623l-35 -42l-6 -578h-239h-96h-96h-56z" />
<glyph unicode="l" horiz-adv-x="554" d="M47 0v1599h170h94h95h94h-94h94v-424v-328v-95v-235v-94v-141v-141v-141h-235h-95h-94h-29z" />
<glyph unicode="m" horiz-adv-x="2105" d="M41 -3v1103h128h81h81h81h-81h123l-1 -134q135 156 319 180q61 10 114 10q260 0 336 -232q48 126 317 237q67 10 125 9q350 0 381 -357v-811l-393 2l3 668v13q0 206 -173 206h-16q-20 3 -39 3q-139 0 -205 -164v-733h-161h-81h-81h-81h81h-81v767q0 152 -178 168 q-10 1 -19 1q-111 0 -169 -121v-192v-95v-240v-96v-192h-202h-81h-81h-47z" />
<glyph unicode="n" horiz-adv-x="1533" d="M44 -3v1103h152h96h96h95h-95h145l-1 -134q160 156 378 180q47 4 90 4q432 0 443 -386v-48v24v24v-96v48v-48v-239v-96v-96v-96v-144h-191h-96h-96h-96h96h-96v767q1 151 -210 168q-12 1 -23 1q-132 0 -200 -121v-192v-95v-240v-96v-192h-239h-96h-96h-56z" />
<glyph unicode="o" horiz-adv-x="1382" d="M33 608q26 299 205 418q168 112 399 112q16 0 31 -1h74q274 -14 428 -145.5t175 -380.5v-23q0 -291 -172 -425q-178 -137 -434 -163h-77q-329 25 -475 172q-145 145 -154 436zM486 404q14 -248 208 -261q188 18 188 257v10v324q-5 262 -192 264q-199 -6 -204 -260v-334z " />
<glyph unicode="p" horiz-adv-x="1437" d="M36 -430v1575h470l1 -38q45 35 237 35q45 0 98 -2q286 -6 420 -183q119 -156 119 -337q0 -23 -2 -46q-3 -190 -108 -346q-103 -154 -397 -228q-58 -4 -107 -4q-191 0 -262 61v-487h-469zM499 322q-1 -12 -1 -23q0 -157 182 -173q187 7 195 291v302q-15 278 -199 291 q-180 -19 -177 -161v-527z" />
<glyph unicode="q" horiz-adv-x="1414" d="M24 574q-2 23 -2 46q0 181 119 337q133 177 420 183q53 2 98 2q192 0 237 -35l1 38h470v-1575h-469v487q-71 -61 -262 -61q-49 0 -107 4q-293 74 -398 228q-104 157 -107 346zM528 417q7 -284 195 -291q182 16 182 173q0 11 -1 23v527q3 142 -177 161q-184 -13 -199 -291 v-302z" />
<glyph unicode="r" horiz-adv-x="1275" d="M55 -3v1103h152h96h96h95h-95h145l-1 -134q76 108 227 140q43 4 82 3q383 0 382 -345h-360v6q0 159 -196 159h-17q-118 -26 -119 -117v-192v-95v-240v-96v-192h-239h-96h-96h-56z" />
<glyph unicode="s" horiz-adv-x="1175" d="M25 363l378 -2q0 -67 18 -119q7 -23 19.5 -44t30.5 -38t43.5 -27t58.5 -10h11q48 0 85 16q18 7 34 20t27 33q11 18 16 46q3 15 3 34q0 15 -2 32q-5 34 -41 67q-15 14 -39 28.5t-59.5 29t-82.5 27.5t-109 23q-119 20 -209 67q-38 20 -73.5 47.5t-61 64.5t-38.5 84 q-8 29 -8 63q0 21 3 43q9 83 69 150q25 28 64.5 56t96 51t133 38.5t176.5 19.5h14q130 0 238 -34q48 -15 95.5 -40.5t87 -64t66.5 -91.5t35 -125l-348 3q-5 63 -26 113q-9 21 -22.5 41.5t-32.5 36.5t-44 26t-58 11q-49 0 -87 -17q-16 -7 -31.5 -18.5t-26.5 -29t-17 -42 t-3 -56.5q-2 -36 33 -71q15 -15 39.5 -31.5t61.5 -33t88.5 -32.5t120.5 -30q101 -19 179 -63q33 -19 64.5 -45t55.5 -62q24 -34 38 -80q12 -37 12 -83q0 -10 -1 -20q1 -92 -54 -163q-23 -31 -60.5 -60t-94.5 -52t-135.5 -37t-183.5 -14q-151 3 -270 42q-51 16 -99.5 42.5 t-87.5 65t-63.5 91.5t-25.5 123z" />
<glyph unicode="t" horiz-adv-x="1089" d="M56 998v182h181h91v227h453v-227h181h91h-91h91v-182h-181h-91v-181v-91v-182v-91v-227v-91v-136h-181h-91h-90h-91h91h-91v999h-272z" />
<glyph unicode="u" horiz-adv-x="1480" d="M41 382v48v-24v-24v96v-48v48v239v96v96v96v93h191h96h96h96h-96h96v-716q-1 -10 -1 -19q0 -184 206 -224q48 -7 87 -7q99 0 141 47v919h239h96h96h56v-1107h-489l1 59q-44 -60 -174 -60h-4q-49 -2 -95 -2q-626 0 -638 394z" />
<glyph unicode="v" horiz-adv-x="1531" d="M33 1131h477l237 -718l257 718l473 1l-531 -1137h-229l-198 -4z" />
<glyph unicode="w" horiz-adv-x="2341" d="M49 1158h456l198 -729l249 729h425l259 -729l198 729h452l-452 -1158h-419l-249 697l-240 -697h-421z" />
<glyph unicode="x" horiz-adv-x="1614" d="M28 0l482 601l-438 551h475l244 -316l244 316h470l-436 -549l477 -603h-485l-270 347l-281 -347h-482z" />
<glyph unicode="y" horiz-adv-x="1484" d="M-2 -105l482 3q-1 -17 -1 -33q0 -90 19 -164q9 -37 25 -72.5t40.5 -63.5t58.5 -44.5t81 -16.5q46 0 79 16.5t56 44t37.5 62t22.5 70.5q14 66 14 146q0 23 -1 46l2 284q-161 -156 -378 -180q-47 -4 -90 -4q-431 0 -443 386v48v-24v-24v96v-48v48v239v96v96v96v144h191h96 h96h96h-96h96v-767q-2 -152 210 -168q12 -1 23 -1q132 0 200 121v192v95v240v96v192h239h96h96h56v-1232v-10q0 -70 -13 -138q-15 -73 -47.5 -138t-86 -119.5t-131 -94.5t-179.5 -62q-99 -21 -224 -21h-11q-143 0 -249.5 25t-183 65t-127 91t-81.5 104q-70 120 -70 271v12z " />
<glyph unicode="z" horiz-adv-x="1194" d="M34 819l1 324h1095l-1 -324l-589 -472h590v-328v-21h-1095v338l568 483h-569z" />
<glyph unicode="{" horiz-adv-x="420" />
<glyph unicode="|" horiz-adv-x="201" />
<glyph unicode="}" horiz-adv-x="360" />
<glyph unicode="~" />
<glyph unicode="&#xa1;" horiz-adv-x="309" />
<glyph unicode="&#xa2;" />
<glyph unicode="&#xa3;" />
<glyph unicode="&#xa4;" horiz-adv-x="420" />
<glyph unicode="&#xa5;" />
<glyph unicode="&#xa6;" horiz-adv-x="201" />
<glyph unicode="&#xa7;" horiz-adv-x="420" />
<glyph unicode="&#xa8;" horiz-adv-x="371" />
<glyph unicode="&#xa9;" horiz-adv-x="714" />
<glyph unicode="&#xaa;" horiz-adv-x="402" />
<glyph unicode="&#xab;" horiz-adv-x="540" />
<glyph unicode="&#xac;" horiz-adv-x="1395" />
<glyph unicode="&#xad;" horiz-adv-x="471" />
<glyph unicode="&#xae;" horiz-adv-x="747" />
<glyph unicode="&#xaf;" horiz-adv-x="360" />
<glyph unicode="&#xb0;" horiz-adv-x="285" />
<glyph unicode="&#xb1;" />
<glyph unicode="&#xb2;" horiz-adv-x="300" />
<glyph unicode="&#xb3;" horiz-adv-x="300" />
<glyph unicode="&#xb4;" horiz-adv-x="462" />
<glyph unicode="&#xb5;" horiz-adv-x="420" />
<glyph unicode="&#xb6;" horiz-adv-x="450" />
<glyph unicode="&#xb7;" horiz-adv-x="207" />
<glyph unicode="&#xb8;" horiz-adv-x="321" />
<glyph unicode="&#xb9;" horiz-adv-x="300" />
<glyph unicode="&#xba;" horiz-adv-x="402" />
<glyph unicode="&#xbb;" horiz-adv-x="540" />
<glyph unicode="&#xbc;" horiz-adv-x="786" />
<glyph unicode="&#xbd;" horiz-adv-x="786" />
<glyph unicode="&#xbe;" horiz-adv-x="786" />
<glyph unicode="&#xbf;" horiz-adv-x="567" />
<glyph unicode="&#xc0;" horiz-adv-x="609" />
<glyph unicode="&#xc1;" horiz-adv-x="609" />
<glyph unicode="&#xc2;" horiz-adv-x="609" />
<glyph unicode="&#xc3;" horiz-adv-x="609" />
<glyph unicode="&#xc4;" horiz-adv-x="609" />
<glyph unicode="&#xc5;" horiz-adv-x="609" />
<glyph unicode="&#xc6;" horiz-adv-x="819" />
<glyph unicode="&#xc7;" horiz-adv-x="729" />
<glyph unicode="&#xc8;" horiz-adv-x="648" />
<glyph unicode="&#xc9;" horiz-adv-x="648" />
<glyph unicode="&#xca;" horiz-adv-x="648" />
<glyph unicode="&#xcb;" horiz-adv-x="648" />
<glyph unicode="&#xcc;" horiz-adv-x="234" />
<glyph unicode="&#xcd;" horiz-adv-x="234" />
<glyph unicode="&#xce;" horiz-adv-x="234" />
<glyph unicode="&#xcf;" horiz-adv-x="234" />
<glyph unicode="&#xd0;" horiz-adv-x="663" />
<glyph unicode="&#xd1;" horiz-adv-x="612" />
<glyph unicode="&#xd2;" horiz-adv-x="696" />
<glyph unicode="&#xd3;" horiz-adv-x="696" />
<glyph unicode="&#xd4;" horiz-adv-x="696" />
<glyph unicode="&#xd5;" horiz-adv-x="696" />
<glyph unicode="&#xd6;" horiz-adv-x="696" />
<glyph unicode="&#xd7;" />
<glyph unicode="&#xd8;" horiz-adv-x="696" />
<glyph unicode="&#xd9;" horiz-adv-x="660" />
<glyph unicode="&#xda;" horiz-adv-x="660" />
<glyph unicode="&#xdb;" horiz-adv-x="660" />
<glyph unicode="&#xdc;" horiz-adv-x="660" />
<glyph unicode="&#xdd;" horiz-adv-x="526" />
<glyph unicode="&#xde;" horiz-adv-x="576" />
<glyph unicode="&#xdf;" horiz-adv-x="498" />
<glyph unicode="&#xe0;" horiz-adv-x="369" />
<glyph unicode="&#xe1;" horiz-adv-x="369" />
<glyph unicode="&#xe2;" horiz-adv-x="369" />
<glyph unicode="&#xe3;" horiz-adv-x="369" />
<glyph unicode="&#xe4;" horiz-adv-x="369" />
<glyph unicode="&#xe5;" horiz-adv-x="369" />
<glyph unicode="&#xe6;" horiz-adv-x="747" />
<glyph unicode="&#xe7;" horiz-adv-x="510" />
<glyph unicode="&#xe8;" horiz-adv-x="486" />
<glyph unicode="&#xe9;" horiz-adv-x="486" />
<glyph unicode="&#xea;" horiz-adv-x="486" />
<glyph unicode="&#xeb;" horiz-adv-x="486" />
<glyph unicode="&#xec;" horiz-adv-x="234" />
<glyph unicode="&#xed;" horiz-adv-x="234" />
<glyph unicode="&#xee;" horiz-adv-x="234" />
<glyph unicode="&#xef;" horiz-adv-x="234" />
<glyph unicode="&#xf0;" horiz-adv-x="483" />
<glyph unicode="&#xf1;" horiz-adv-x="384" />
<glyph unicode="&#xf2;" horiz-adv-x="366" />
<glyph unicode="&#xf3;" horiz-adv-x="366" />
<glyph unicode="&#xf4;" horiz-adv-x="366" />
<glyph unicode="&#xf5;" horiz-adv-x="366" />
<glyph unicode="&#xf6;" horiz-adv-x="366" />
<glyph unicode="&#xf7;" />
<glyph unicode="&#xf8;" horiz-adv-x="366" />
<glyph unicode="&#xf9;" horiz-adv-x="342" />
<glyph unicode="&#xfa;" horiz-adv-x="342" />
<glyph unicode="&#xfb;" horiz-adv-x="342" />
<glyph unicode="&#xfc;" horiz-adv-x="342" />
<glyph unicode="&#xfd;" horiz-adv-x="393" />
<glyph unicode="&#xfe;" horiz-adv-x="348" />
<glyph unicode="&#xff;" horiz-adv-x="393" />
<glyph unicode="&#x152;" horiz-adv-x="954" />
<glyph unicode="&#x153;" horiz-adv-x="756" />
<glyph unicode="&#x178;" horiz-adv-x="526" />
<glyph unicode="&#x2c6;" horiz-adv-x="360" />
<glyph unicode="&#x2dc;" horiz-adv-x="483" />
<glyph unicode="&#x2000;" horiz-adv-x="822" />
<glyph unicode="&#x2001;" horiz-adv-x="1645" />
<glyph unicode="&#x2002;" horiz-adv-x="822" />
<glyph unicode="&#x2003;" horiz-adv-x="1645" />
<glyph unicode="&#x2004;" horiz-adv-x="548" />
<glyph unicode="&#x2005;" horiz-adv-x="411" />
<glyph unicode="&#x2006;" horiz-adv-x="274" />
<glyph unicode="&#x2007;" horiz-adv-x="274" />
<glyph unicode="&#x2008;" horiz-adv-x="205" />
<glyph unicode="&#x2009;" horiz-adv-x="329" />
<glyph unicode="&#x200a;" horiz-adv-x="91" />
<glyph unicode="&#x2010;" horiz-adv-x="471" />
<glyph unicode="&#x2011;" horiz-adv-x="471" />
<glyph unicode="&#x2012;" horiz-adv-x="471" />
<glyph unicode="&#x2013;" horiz-adv-x="684" />
<glyph unicode="&#x2014;" horiz-adv-x="894" />
<glyph unicode="&#x2018;" horiz-adv-x="237" />
<glyph unicode="&#x2019;" horiz-adv-x="240" />
<glyph unicode="&#x201a;" horiz-adv-x="234" />
<glyph unicode="&#x201c;" horiz-adv-x="342" />
<glyph unicode="&#x201d;" horiz-adv-x="300" />
<glyph unicode="&#x201e;" horiz-adv-x="402" />
<glyph unicode="&#x2022;" horiz-adv-x="387" />
<glyph unicode="&#x2026;" horiz-adv-x="792" />
<glyph unicode="&#x202f;" horiz-adv-x="329" />
<glyph unicode="&#x2039;" horiz-adv-x="321" />
<glyph unicode="&#x203a;" horiz-adv-x="321" />
<glyph unicode="&#x205f;" horiz-adv-x="411" />
<glyph unicode="&#x2122;" horiz-adv-x="681" />
<glyph unicode="&#x25fc;" horiz-adv-x="1150" d="M0 0v1150h1150v-1150h-1150z" />
</font>
</defs>
</svg>
